<svg xmlns="http://www.w3.org/2000/svg" version="1.1" xmlns:xlink="http://www.w3.org/1999/xlink" xmlns:svgjs="http://svgjs.dev/svgjs" width="128" height="128" viewBox="0 0 128 128"><g transform="matrix(0.8046875,0,0,0.8046875,12.391674777811481,5.817543247008665)"><svg viewBox="0 0 85 96" data-background-color="#f2f2f2" preserveAspectRatio="xMidYMid meet" height="144" width="128" xmlns="http://www.w3.org/2000/svg" xmlns:xlink="http://www.w3.org/1999/xlink"><g id="tight-bounds" transform="matrix(1,0,0,1,0.08944570338621816,0.25950000000000273)"><svg viewBox="0 0 84.82110859322758 95.481" height="95.481" width="84.82110859322758"><g><svg viewBox="0 0 84.82110859322758 95.481" height="95.481" width="84.82110859322758"><g><svg viewBox="0 0 84.82110859322758 95.481" height="95.481" width="84.82110859322758"><g id="textblocktransform"><svg viewBox="0 0 84.82110859322758 95.481" height="95.481" width="84.82110859322758" id="textblock"><g><svg viewBox="0 0 84.82110859322758 95.481" height="95.481" width="84.82110859322758"><g><svg viewBox="0 0 84.82110859322758 95.481" height="95.481" width="84.82110859322758"><g><svg xmlns="http://www.w3.org/2000/svg" xmlns:xlink="http://www.w3.org/1999/xlink" version="1.1" x="0" y="0" viewBox="5.659 0.35045004439541455 88.15600000045639 99.23500382917229" enable-background="new 0 0 100 100" xml:space="preserve" height="95.481" width="84.82110859322758" class="icon-icon-0" data-fill-palette-color="accent" id="icon-0"><g fill="#f96d00" data-fill-palette-color="accent"><path fill="#f96d00" d="M93.786 22.714L93.774 22.638A3 3 0 0 0 93.701 22.302L93.686 22.242A3 3 0 0 0 93.515 21.804 3 3 0 0 0 93.429 21.626C93.41 21.594 93.388 21.564 93.369 21.532L93.311 21.439A3 3 0 0 0 93.102 21.154C93.096 21.146 93.091 21.138 93.084 21.132A3 3 0 0 0 92.81 20.847L92.754 20.799A3 3 0 0 0 92.483 20.589C92.464 20.577 92.448 20.564 92.43 20.552A3 3 0 0 0 92.087 20.356L92.066 20.344 51.07 0.653A3.09 3.09 0 0 0 48.403 0.653L7.406 20.343 7.383 20.356A3 3 0 0 0 7.045 20.549C7.024 20.562 7.004 20.577 6.984 20.591A3 3 0 0 0 6.723 20.794L6.66 20.849A3 3 0 0 0 6.389 21.128C6.379 21.139 6.371 21.152 6.362 21.164A3 3 0 0 0 6.101 21.538C6.083 21.568 6.062 21.596 6.045 21.626 6.014 21.681 5.989 21.738 5.962 21.794L5.92 21.879A3 3 0 0 0 5.788 22.238L5.77 22.308C5.74 22.416 5.717 22.524 5.7 22.633 5.695 22.661 5.69 22.688 5.687 22.716A3 3 0 0 0 5.659 23.113V73.77C5.659 74.889 6.266 75.92 7.246 76.464L48.242 99.2A3.09 3.09 0 0 0 51.231 99.2L92.228 76.466A3.08 3.08 0 0 0 93.815 73.772V23.117C93.815 22.982 93.805 22.848 93.786 22.714M49.737 92.981L11.821 71.956V28.354L31.933 39.507A3.081 3.081 0 1 0 34.923 34.117L15.449 23.317 49.737 6.85 84.026 23.318 64.553 34.116A3.08 3.08 0 0 0 63.352 38.305 3.076 3.076 0 0 0 67.54 39.506L87.652 28.354V71.956z" data-fill-palette-color="accent"></path><path fill="#f96d00" d="M52.84 50.581A0.617 0.617 0 0 0 52.096 50.168 9.43 9.43 0 0 1 47.345 50.159 0.62 0.62 0 0 0 46.599 50.571L37.947 78.23A0.62 0.62 0 0 0 38.126 78.873L49.31 88.808A0.614 0.614 0 0 0 50.128 88.809L61.35 78.874A0.61 0.61 0 0 0 61.528 78.229z" data-fill-palette-color="accent"></path><path fill="#f96d00" d="M41.634 38.822L46.706 47.518A0.62 0.62 0 0 0 47.081 47.804C47.251 47.848 47.421 47.898 47.592 47.946 48.263 48.139 48.958 48.338 49.737 48.338 50.488 48.338 51.156 48.145 51.802 47.958 51.985 47.906 52.168 47.852 52.352 47.805A0.62 0.62 0 0 0 52.737 47.504L57.508 38.777C57.673 38.429 57.823 37.632 57.332 36.853 56.44 35.441 53.886 34.725 49.737 34.725 45.547 34.725 42.917 35.449 41.917 36.875 41.276 37.792 41.554 38.63 41.587 38.724A1 1 0 0 0 41.634 38.822" data-fill-palette-color="accent"></path></g></svg></g></svg></g></svg></g></svg></g></svg></g></svg></g><defs></defs></svg><rect width="84.82110859322758" height="95.481" fill="none" stroke="none" visibility="hidden"></rect></g></svg></g></svg>